<svg xmlns="http://www.w3.org/2000/svg" viewBox="0 0 46.05 71.36"><defs><style>.cls-1{fill:#47403c;}.cls-2{fill:#494949;}.cls-3{fill:#eee6d9;}.cls-4{fill:#ebc4a8;}.cls-5{fill:#deb99f;}.cls-6{fill:#cca692;}</style></defs><title>Asset 2</title><g id="Layer_2" data-name="Layer 2"><g id="Layer_1-2" data-name="Layer 1"><path d="M25.33,12.54s-.91-6.26,0-9.54,2.5-4.47,4.66-.45,0,10.62,0,10.62Z"/><path class="cls-1" d="M34.15,24.32l-1.56-9.93-1-6.17S26.4,4.14,25,9.43s-.33,8.24-.33,8.24l-2.46,6.54Z"/><path d="M20.61,12.54s.91-6.26,0-9.54S18.11-1.47,16,2.55s0,10.62,0,10.62Z"/><path class="cls-1" d="M10.18,23.79l3.17-9.4,1-6.17s5.2-4.08,6.58,1.21.34,8.24.34,8.24l1,6.54Z"/><path d="M10.18,23.79a58.53,58.53,0,0,1,6.25-1.2c1.84-.05,5.44,1,7.28,1.26,2.76.33,11.07-.52,11.07-.52l3,9.57,2,17.42H6L7.72,34.23Z"/><path class="cls-2" d="M22.69,48.94c-11,0-18.76-3.53-22.69-8.53,0,3.31.23,4.08.23,5.9,0,7.57,11.81,13.2,22.46,13,11.09-.25,23.36-6.14,23.36-13.7,0-1.83-.22-3.35-.22-5.17C41.9,45.41,33.72,48.94,22.69,48.94Z"/><path class="cls-3" d="M13.68,52.85c0-5.22,9.24-15.24,9.24-15.24s9.25,10,9.25,15.24S28,59.28,22.92,59.28,13.68,58.06,13.68,52.85Z"/><path class="cls-4" d="M12.05,56.35c0-3.75,2.06-6.16,4.14-9.34,1.74-2.65,3.85-4.78,6.72-4.78s4.74,2,6.45,4.4c2.23,3.2,4.42,5.82,4.42,9.72,0,6.88-4.56,12.46-10.87,12.46S12.05,63.23,12.05,56.35Z"/><path class="cls-5" d="M17.78,47.58c-.14-.38.48-.89,1.37-1.15a1.88,1.88,0,0,1,2,.59c.14.38-.62.52-1.51.78S17.92,48,17.78,47.58Z"/><path class="cls-5" d="M28.05,47.58c.14-.38-.48-.89-1.37-1.15a1.88,1.88,0,0,0-2,.59c-.14.38.61.52,1.51.78S27.91,48,28.05,47.58Z"/><path class="cls-6" d="M17.23,48.6a4.76,4.76,0,0,1,.83-1c.09-.05.2-.06.29-.11s.19-.09.29-.12l.6-.2a6.23,6.23,0,0,1,.62-.15,3.3,3.3,0,0,1,.64-.08,2.51,2.51,0,0,1,.67,0l.69.12,2.31.4L21.82,48l-2.23.54-.56.14-.28.06c-.1,0-.18.08-.29.06A9.31,9.31,0,0,1,17.23,48.6Zm0,0c.33-.28.67-.51,1-.75.09-.06.19,0,.28-.07l.28-.07.56-.13L21.59,47l0,1-.48-.07a1.74,1.74,0,0,0-.51,0,1.85,1.85,0,0,0-.52.06c-.18,0-.36.07-.53.13l-.52.17-.26.11c-.09,0-.17.09-.26.12Z"/><path class="cls-6" d="M28.6,48.6l-1.26-.08c-.09,0-.16-.09-.25-.12l-.26-.11-.52-.17c-.18-.06-.35-.08-.53-.13a1.89,1.89,0,0,0-.52-.06,1.74,1.74,0,0,0-.51,0l-.48.07,0-1,2.24.54.56.13.28.07c.09,0,.19,0,.27.07C27.93,48.09,28.27,48.32,28.6,48.6Zm0,0a9.18,9.18,0,0,1-1.24.21c-.1,0-.18-.05-.28-.06l-.28-.06-.56-.14L24,48l-2.34-.56,2.31-.4.69-.12a2.43,2.43,0,0,1,.66,0A3.4,3.4,0,0,1,26,47a6.23,6.23,0,0,1,.62.15l.6.2a2.36,2.36,0,0,1,.28.12c.1.05.2.06.29.11A4.8,4.8,0,0,1,28.6,48.6Z"/><path class="cls-4" d="M11.18,54.29c.32-1.41,1.11-2.44,1.76-2.29s.93,1.42.6,2.83-1.1,2.44-1.76,2.29S10.86,55.71,11.18,54.29Z"/><path class="cls-4" d="M34.65,54.29c-.32-1.41-1.11-2.44-1.77-2.29s-.92,1.42-.6,2.83,1.11,2.44,1.76,2.29S35,55.71,34.65,54.29Z"/><path d="M12,59.51c0-10.45,3-1.72,10.87-5.33,7.14-3.26,10.87-3.91,10.87,5.33,0,7.62-5.18,11.85-10.87,11.85C16.82,71.36,12,67.13,12,59.51Z"/><path class="cls-4" d="M20.3,44.12c0-.93,1.58-2.68,2.61-2.68s2.62,1.75,2.62,2.68-1.58.68-2.62.68S20.3,45.05,20.3,44.12Z"/><path class="cls-4" d="M8.17,22.75c1.22-1.77,1.81-3,.57-3.88s-3.25-.12-4.47,1.65-1.2,3.91.05,4.77S7,24.52,8.17,22.75Z"/><polygon class="cls-2" points="0 40.41 4.08 46.21 7.38 46.21 7.38 42.23 6.87 33.79 7.59 25.2 2.52 23.33 0.72 34.68 0 40.41"/><path class="cls-4" d="M37.27,20.94c-1.15-1.82-1.15-1.82-.69-2.43.92-1.21,3.25,0,4.41,1.81s.12,4.77-1.15,5.59S38.43,22.75,37.27,20.94Z"/><polygon class="cls-2" points="45.83 40.41 41.75 46.21 39.28 45.51 38.31 43.8 38.69 34.95 36.92 25.01 42.06 23.32 45.36 34.23 45.83 40.41"/></g></g></svg>