<svg xmlns="http://www.w3.org/2000/svg" viewBox="0 0 39.97 75.83"><defs><style>.cls-1{fill:#deb49f;}.cls-2{fill:#ebc4a8;}.cls-3{fill:#138f7e;}.cls-4{fill:#69cea1;}.cls-5{fill:#2d8f82;}.cls-6{fill:#deb99f;}.cls-7{fill:#cca692;}.cls-8{fill:#683e2b;}.cls-9{fill:#6b6b6b;}</style></defs><title>Asset 1</title><g id="Layer_2" data-name="Layer 2"><g id="Layer_1-2" data-name="Layer 1"><path d="M16.45,62.64c1.7,1.68,2,6.91,1.1,10.2s-2.5,4.46-4.66.44,0-10.61,0-10.61S15.62,61.82,16.45,62.64Z"/><path class="cls-1" d="M17.08,67.76c0,1.53-.9,2.78-2,2.78s-2-1.25-2-2.78S14,65,15.07,65,17.08,66.22,17.08,67.76Z"/><path class="cls-2" d="M9.05,51s3.51,15.57,4.27,16.92,3.76,1.57,3.76-2.78C17.08,64.2,16,49.9,16,49.9Z"/><path d="M24.19,62.64c-1.7,1.68-2,6.91-1.09,10.2s2.49,4.46,4.65.44,0-10.61,0-10.61S25,61.82,24.19,62.64Z"/><path class="cls-1" d="M23.57,67.76c0,1.53.9,2.78,2,2.78s2-1.25,2-2.78-.9-2.79-2-2.79S23.57,66.22,23.57,67.76Z"/><path class="cls-2" d="M31.59,51s-3.51,15.57-4.27,16.92S23.73,71,23.73,66.66c0-.92.91-16.76.91-16.76Z"/><path class="cls-3" d="M32.83,54c-2,2.88-2.79,6.88-12.31,6.88-9,0-10.34-2.91-12.32-6-4.07-6.26-.48-9.2-.13-12.11.68-5.69-2.83-17.33-2.83-17.33H33.89S31.59,39,32.66,42.84C33.38,45.42,35.94,49.61,32.83,54Z"/><path class="cls-4" d="M26.35,33.6c-3.14,0-5.77,1.6-6.38,3.72-.62-2.12-3.25-3.72-6.39-3.72-3.6,0-6.31-.14-6.31,2.45s7.54,7.51,9.4,7.51h6.59c1.87,0,9.4-4.93,9.4-7.51S30,33.6,26.35,33.6Z"/><path class="cls-4" d="M20.19,39c11,0,15.85-9,19.69-4.15.2-2.93-.6-8-2.86-10.87-4.38-5.56-9.81-7.61-16.83-7.45-7.5.16-13.77,1.8-18.12,7.45C0,26.72.05,32.3.05,35.42,5.26,29.83,9.16,39,20.19,39Z"/><path class="cls-5" d="M29.15,20.6H11.48l.82,10.19s6.76,11.06,8,11.06,8-11,8-11Z"/><path class="cls-2" d="M29.4,17.48c0,3.75-1.51,15.12-9.43,15.12s-9.44-11.21-9.44-15.12C10.53,10.6,13.66,7,20,7S29.4,10.6,29.4,17.48Z"/><path class="cls-6" d="M24.77,29.37c.14.38-.48.9-1.37,1.15a1.86,1.86,0,0,1-2-.59c-.14-.38.61-.52,1.51-.77S24.63,29,24.77,29.37Z"/><path class="cls-6" d="M15.19,29.37c-.14.38.48.9,1.37,1.15a1.86,1.86,0,0,0,2-.59c.14-.38-.61-.52-1.51-.77S15.33,29,15.19,29.37Z"/><path class="cls-7" d="M25.42,28.44a3.65,3.65,0,0,1-.37.29c-.13.08-.26.18-.4.26-.32.1-.65.21-1,.29a4.51,4.51,0,0,1-.53.1,2.44,2.44,0,0,1-.55.06,3.49,3.49,0,0,1-.56,0l-.58-.08-1.09-.16L21.47,29l1.94-.37.48-.09.24,0a2.21,2.21,0,0,1,.25,0C24.72,28.44,25.06,28.43,25.42,28.44Zm0,0c-.3.14-.6.25-.9.37-.08,0-.17,0-.24.05l-.25,0-.48.1-1.94.36,0-.36.45.06a2.37,2.37,0,0,0,.46,0A1.51,1.51,0,0,0,23,29a3.55,3.55,0,0,0,.47-.09,7.45,7.45,0,0,0,.92-.27Z"/><path class="cls-7" d="M14.52,28.44l1,.2a6.83,6.83,0,0,0,.91.27,3.55,3.55,0,0,0,.47.09,1.51,1.51,0,0,0,.47.05,2.46,2.46,0,0,0,.47,0L18.3,29l0,.36L16.38,29l-.48-.1-.24,0a2.21,2.21,0,0,1-.25-.05C15.12,28.69,14.81,28.58,14.52,28.44Zm0,0c.35,0,.69,0,1,0a2,2,0,0,1,.24,0l.24,0,.49.09,1.93.37,1.12.21-1.09.16-.58.08a3.49,3.49,0,0,1-.56,0,2.51,2.51,0,0,1-.55-.06,4.51,4.51,0,0,1-.53-.1c-.34-.08-.67-.19-1-.29-.14-.08-.27-.18-.4-.26A2.68,2.68,0,0,1,14.52,28.44Z"/><path class="cls-8" d="M28.71,23.07a9.89,9.89,0,0,1-8.44,4.31c-3.72,0-7.44-1.84-8.71-3.23-4.88-5.31.43-18,5.79-19.36.82-.21,2.53.52,3.46.52s1-.77,1.77-.63C29.33,5.88,32.19,17.24,28.71,23.07Z"/><ellipse class="cls-8" cx="20.81" cy="5.31" rx="7.29" ry="5.31"/><path class="cls-2" d="M21.93,30.83c0,.93-1.18,2.68-2,2.68s-2-1.75-2-2.68,1.18-.68,2-.68S21.93,29.9,21.93,30.83Z"/><polygon class="cls-9" points="0 34.86 0.47 38.46 6.08 37.15 6.63 34.47 0.14 31.82 0 34.86"/><polygon class="cls-2" points="0.98 38.35 3.23 52.35 5.74 50.82 6.08 37.15 0.98 38.35"/><path class="cls-2" d="M33.68,52.35c-1.15,1.82.06.88-1,3-.68,1.35,2.34.81,3.5-1s1.05-3.95-.22-4.76S34.84,50.54,33.68,52.35Z"/><path class="cls-2" d="M6.5,52.35c1.15,1.82-.06.88,1,3,.68,1.35-2.34.81-3.5-1S3,50.42,4.24,49.61,5.34,50.54,6.5,52.35Z"/><polygon class="cls-2" points="38.95 38.35 36.7 52.35 34.33 51.07 33.85 37.15 38.95 38.35"/><polygon class="cls-9" points="39.97 34.86 39.5 38.46 33.68 37.19 33.17 34.91 39.83 31.82 39.97 34.86"/></g></g></svg>